<svg width="256" height="256" viewBox="0 0 256 256" fill="none" xmlns="http://www.w3.org/2000/svg">
  <rect width="256" height="256" rx="64" fill="#FFF7ED"/>
  <path d="M127.5 62C146.8 62 163.6 68.2 176.6 80.6C189.6 93 196 109.3 196 129.4C196 149.7 189.4 166.9 176.1 180C162.8 193 146.6 199.5 127.5 199.5C108.4 199.5 92.2 193 78.9 180C65.6 166.9 59 149.7 59 129.4C59 109.3 65.4 93 78.4 80.6C91.4 68.2 108.1 62 127.5 62Z" fill="#E34B3F"/>
  <path d="M128 74C142.7 74 155.3 78.7 165.8 88.1C176.2 97.5 181.4 110.6 181.4 127.3C181.4 144.8 175.7 159.5 164.4 171.3C153.2 183 141 188.9 128 188.9C115 188.9 102.8 183 91.6 171.3C80.3 159.5 74.6 144.8 74.6 127.3C74.6 110.6 79.8 97.5 90.2 88.1C100.7 78.7 113.3 74 128 74Z" fill="#F06459"/>
  <path d="M117 51C123.2 51 128.7 54 132 59.4C135.4 64.7 135.8 70 133.3 75.1C130.8 80.1 126.2 82.6 119.5 82.6C112.7 82.6 108.1 80.1 105.6 75.1C103.2 70.1 103.6 64.8 107 59.4C110.3 54.1 113.7 51 117 51Z" fill="#2C8C4A"/>
  <path d="M130.5 67.5C137.5 54.6 147.4 46.7 160.3 43.8C173.2 40.9 184.5 43.4 194 51.2C182.9 51.7 173.8 54.7 166.7 60.3C159.5 65.9 154.7 73.1 152.2 81.9C145.3 79.8 138.1 75 130.5 67.5Z" fill="#3BAE5D"/>
</svg>
